<svg width="14" height="14" viewBox="0 0 14 14" fill="none" xmlns="http://www.w3.org/2000/svg">
<path d="M6.99998 0.466675C6.76665 0.466675 6.53331 0.641675 6.53331 0.933342V3.15001C6.53331 3.38334 6.70831 3.61667 6.99998 3.61667C7.29165 3.61667 7.46665 3.44167 7.46665 3.15001V0.933342C7.46665 0.700008 7.23331 0.466675 6.99998 0.466675ZM6.99998 7.35001C6.76665 7.35001 6.53331 7.52501 6.53331 7.81667V9.45001C6.53331 9.68334 6.70831 9.91667 6.99998 9.91667C7.29165 9.91667 7.46665 9.74167 7.46665 9.45001V7.81667C7.46665 7.52501 7.23331 7.35001 6.99998 7.35001ZM6.99998 4.20001C6.76665 4.20001 6.53331 4.37501 6.53331 4.66668V6.30001C6.53331 6.53334 6.70831 6.76667 6.99998 6.76667C7.29165 6.76667 7.46665 6.59167 7.46665 6.30001V4.60834C7.46665 4.37501 7.23331 4.20001 6.99998 4.20001ZM6.99998 10.4417C6.76665 10.4417 6.53331 10.6167 6.53331 10.9083V13.125C6.53331 13.3583 6.70831 13.5917 6.99998 13.5917C7.29165 13.5917 7.46665 13.4167 7.46665 13.125V10.9083C7.46665 10.6167 7.23331 10.4417 6.99998 10.4417ZM2.04165 1.75001H5.24998C5.59998 1.75001 5.83331 1.51667 5.83331 1.16667C5.83331 0.816675 5.59998 0.583342 5.24998 0.583342H2.04165C1.22498 0.583342 0.583313 1.22501 0.583313 2.04167V11.9583C0.583313 12.775 1.22498 13.4167 2.04165 13.4167H5.24998C5.59998 13.4167 5.83331 13.1833 5.83331 12.8333C5.83331 12.4833 5.59998 12.25 5.24998 12.25H2.04165C1.86665 12.25 1.74998 12.1333 1.74998 11.9583V2.04167C1.74998 1.86667 1.86665 1.75001 2.04165 1.75001ZM11.9583 0.583342H8.74998C8.39998 0.583342 8.16665 0.816675 8.16665 1.16667C8.16665 1.51667 8.39998 1.75001 8.74998 1.75001H11.9583C12.1333 1.75001 12.25 1.86667 12.25 2.04167V11.9583C12.25 12.1333 12.1333 12.25 11.9583 12.25H8.74998C8.39998 12.25 8.16665 12.4833 8.16665 12.8333C8.16665 13.1833 8.39998 13.4167 8.74998 13.4167H11.9583C12.775 13.4167 13.4166 12.775 13.4166 11.9583V2.04167C13.4166 1.22501 12.775 0.583342 11.9583 0.583342Z" fill="white"/>
</svg>
