<svg width="44" height="43" viewBox="0 0 44 43" fill="none" xmlns="http://www.w3.org/2000/svg">
<path d="M21.9991 0.90686C10.3852 0.90686 0.970215 10.3218 0.970215 21.9358C0.970215 33.5497 10.3852 42.9648 21.9991 42.9648C33.6132 42.9648 43.0281 33.5497 43.0281 21.9358C43.0281 10.3218 33.6132 0.90686 21.9991 0.90686ZM25.4435 31.5231C25.4435 31.8066 25.2001 32.0501 24.9163 32.0501H19.162C18.8783 32.0501 18.635 31.8066 18.635 31.5231V25.89C18.635 25.6064 18.8783 25.363 19.162 25.363H24.9163C25.2001 25.363 25.4435 25.6064 25.4435 25.89V31.5231ZM34.6025 32.0491H31.2793C30.7927 32.0491 30.5897 31.8868 30.3472 31.4415L21.9991 14.745L13.6509 31.4415C13.4076 31.9279 13.2056 32.0491 12.7189 32.0491H9.39604C8.78819 32.0491 8.46403 31.6847 8.82858 30.996L19.3649 10.2467C19.567 9.8821 19.9324 9.63881 20.3372 9.63881H23.7006C24.1056 9.63881 24.4703 9.8821 24.6731 10.2467H24.6738L35.1697 30.996C35.5344 31.6443 35.2101 32.0491 34.6025 32.0491Z" fill="white"/>
</svg>
